<?xml version="1.0" encoding="iso-8859-1"?>
<!-- Generator: Adobe Illustrator 18.1.1, SVG Export Plug-In . SVG Version: 6.00 Build 0)  -->
<svg version="1.1" id="Capa_1" xmlns="http://www.w3.org/2000/svg" xmlns:xlink="http://www.w3.org/1999/xlink" x="0px" y="0px"
	 viewBox="0 0 30.545 30.545" style="enable-background:new 0 0 30.545 30.545;" xml:space="preserve">
<g>
	<path d="M29.336,28.295V1.023C29.336,0.207,28.314,0,28.314,0H7.316C4.25,0,4.248,3.273,4.248,3.273v26.182
		c0,0.601,0.487,1.09,1.09,1.09h19.636c0.604,0,1.091-0.489,1.091-1.09l2.182-0.002C29.42,29.453,29.336,28.295,29.336,28.295z
		 M24.541,10.959H14.124V5.351h10.417V10.959z M26.064,19.961V4.41c0-0.603-0.487-1.09-1.091-1.09L6.393,3.311
		c0-0.75,1.128-1.129,1.128-1.129h18.544c1.16,0,1.125,1.021,1.125,1.021v24.552c0,0-0.19,0.71-1.125,0.71L26.064,19.961
		 M8.279,11.959c0,0.905-0.733,1.639-1.639,1.639H2.847c-0.905,0-1.639-0.734-1.639-1.639l0,0c0-0.905,0.734-1.638,1.639-1.638
		h3.794C7.546,10.321,8.279,11.054,8.279,11.959L8.279,11.959z M8.279,20.35c0,0.905-0.733,1.64-1.639,1.64H2.847
		c-0.905,0-1.639-0.735-1.639-1.64l0,0c0-0.904,0.734-1.638,1.639-1.638h3.794C7.546,18.712,8.279,19.446,8.279,20.35L8.279,20.35z"
		/>
	<g>
	</g>
	<g>
	</g>
	<g>
	</g>
	<g>
	</g>
	<g>
	</g>
	<g>
	</g>
	<g>
	</g>
	<g>
	</g>
	<g>
	</g>
	<g>
	</g>
	<g>
	</g>
	<g>
	</g>
	<g>
	</g>
	<g>
	</g>
	<g>
	</g>
</g>
<g>
</g>
<g>
</g>
<g>
</g>
<g>
</g>
<g>
</g>
<g>
</g>
<g>
</g>
<g>
</g>
<g>
</g>
<g>
</g>
<g>
</g>
<g>
</g>
<g>
</g>
<g>
</g>
<g>
</g>
</svg>
